<svg xmlns="http://www.w3.org/2000/svg" viewBox="0 0 320 100" fill="none">
    <!-- RuPay Wordmark - Professional Vector Recreation -->
    <g transform="translate(15, 75) scale(0.95) skewX(-15)">
        <!-- R -->
        <path d="M0,0 L0,-58 L24,-58 C45,-58 52,-48 52,-38 C52,-28 45,-18 24,-18 L16,-18 L16,0 L0,0 Z M16,-28 L24,-28 C34,-28 36,-32 36,-38 C36,-44 34,-48 24,-48 L16,-48 L16,-28 Z" fill="#283592"/>
        <path d="M24,-18 L46,0 L26,0 L14,-15 L24,-18 Z" fill="#283592"/>
        
        <!-- u -->
        <path d="M65,0 L65,-40 L78,-40 L78,-35 C84,-40 92,-42 98,-42 C110,-42 118,-35 118,-25 L118,0 L102,0 L102,-22 C102,-30 98,-32 94,-32 C88,-32 78,-28 78,-22 L78,0 L65,0 Z" fill="#283592"/>
        
        <!-- P -->
        <path d="M128,0 L128,-58 L152,-58 C173,-58 180,-48 180,-38 C180,-28 173,-18 152, -18 L144,-18 L144,0 L128,0 Z M144,-28 L152,-28 C162,-28 164,-32 164,-38 C164,-44 162,-48 152,-48 L144,-48 L144,-28 Z" fill="#283592"/>
        
        <!-- a -->
        <path d="M230,0 L230,-6 C222,0 212,1 202,1 C190,1 182,-3 182,-12 C182,-25 195,-28 215,-28 L230,-28 L230,-32 C230,-38 226,-40 218,-40 C208,-40 202,-38 202,-32 L186,-32 C186,-42 198,-45 218,-45 C238,-45 246,-38 246,-30 L246,0 L230,0 Z M230,-18 L218,-18 C205,-18 198,-16 198,-12 C198,-8 202,-7 210,-7 C220,-7 230,-10 230,-15 L230,-18 Z" fill="#283592"/>
        
        <!-- y -->
        <path d="M255,-40 L270,-40 L280,-15 L290,-40 L305,-40 L282,0 C278,12 272,18 260,18 L250,18 L250,5 L258,5 C266,5 270,2 274,-5 L255,-40 Z" fill="#283592"/>
        
        <!-- Trademark TM -->
        <text transform="translate(305, -45) scale(0.6) skewX(15)" font-family="Arial, sans-serif" font-weight="bold" font-size="12" fill="#283592">TM</text>
    </g>

    <!-- Arrow Mark -->
    <g transform="translate(265, 20) scale(0.9)">
        <!-- Saffron Wedge -->
        <path d="M0,0 L35,40 L0,80 L20,40 Z" fill="#F37021"/>
        <!-- Green Wedge -->
        <path d="M25,0 L60,40 L25,80 L45,40 Z" fill="#008248"/>
    </g>
</svg>
