<svg xmlns="http://www.w3.org/2000/svg" viewBox="0 0 1000 324" fill="#1434CB">
  <path d="M431.66 0.96L374.08 323.04H305.2L362.78 0.96H431.66ZM726.48 209.01C726.76 119.08 603.12 114.68 603.84 71.28C604.08 59.52 615.24 47.04 639.72 43.92C651.84 42.6 683.88 41.52 720.12 58.32L734.4 9.72C715.32 3.12 691.56 -3.12 662.4 -3.12C595.56 -3.12 547.44 34.32 547.08 86.88C546.6 126 577.56 148.08 601.32 161.52C625.8 175.32 634.44 184.2 634.32 196.68C634.08 215.76 611.52 224.16 590.52 224.52C551.16 225.12 528.36 213.72 510.12 205.32L495.36 255.84C513.72 264.96 547.08 272.88 581.52 273.24C652.92 273.24 699.96 236.6 726.48 209.01ZM849.96 323.04H912L858.72 0.96H801.96C790.08 0.96 780.12 7.92 775.92 18.72L675.12 323.04H746.4L760.68 282.24H847.44L849.96 323.04ZM779.16 228.12L814.68 132.72L835.32 228.12H779.16ZM529.92 0.96L477.84 323.04H410.04L462.12 0.96H529.92Z"/>
  <path d="M221.88 0.96L130.2 221.28L122.64 180.96L95.88 19.68C92.16 7.2 82.56 1.68 71.28 0.96H0.48L-0.48 4.68C21.12 9.84 45.12 18 62.16 27.84L122.16 323.04H194.04L296.16 0.96H221.88Z"/>
</svg>
